<?xml version="1.0" encoding="UTF-8" standalone="no"?>
<!-- Created with Inkscape (http://www.inkscape.org/) -->

<svg
   width="128"
   height="128"
   viewBox="0 0 33.866666 33.866666"
   version="1.1"
   id="svg5"
   xml:space="preserve"
   inkscape:version="1.2.2 (b0a8486541, 2022-12-01)"
   sodipodi:docname="icon.svg"
   inkscape:export-filename="icon.png"
   inkscape:export-xdpi="96"
   inkscape:export-ydpi="96"
   xmlns:inkscape="http://www.inkscape.org/namespaces/inkscape"
   xmlns:sodipodi="http://sodipodi.sourceforge.net/DTD/sodipodi-0.dtd"
   xmlns:xlink="http://www.w3.org/1999/xlink"
   xmlns="http://www.w3.org/2000/svg"
   xmlns:svg="http://www.w3.org/2000/svg"><sodipodi:namedview
     id="namedview7"
     pagecolor="#ffffff"
     bordercolor="#000000"
     borderopacity="0.25"
     inkscape:showpageshadow="2"
     inkscape:pageopacity="0.0"
     inkscape:pagecheckerboard="0"
     inkscape:deskcolor="#d1d1d1"
     inkscape:document-units="mm"
     showgrid="false"
     showguides="true"
     inkscape:zoom="2.7865881"
     inkscape:cx="32.656423"
     inkscape:cy="75.899269"
     inkscape:window-width="1920"
     inkscape:window-height="988"
     inkscape:window-x="0"
     inkscape:window-y="32"
     inkscape:window-maximized="1"
     inkscape:current-layer="g5186"><sodipodi:guide
       position="140.88589,-127.60886"
       orientation="1,0"
       id="guide2260"
       inkscape:locked="false" /></sodipodi:namedview><defs
     id="defs2"><linearGradient
       inkscape:collect="always"
       id="linearGradient420"><stop
         style="stop-color:#262626;stop-opacity:1;"
         offset="0"
         id="stop416" /><stop
         style="stop-color:#000000;stop-opacity:1;"
         offset="1"
         id="stop418" /></linearGradient><linearGradient
       inkscape:collect="always"
       xlink:href="#linearGradient420"
       id="linearGradient422"
       x1="86.013275"
       y1="118.03032"
       x2="86.308502"
       y2="205.04797"
       gradientUnits="userSpaceOnUse" /></defs><g
     inkscape:label="Camada 1"
     inkscape:groupmode="layer"
     id="layer1"><g
       id="g5186"
       inkscape:export-filename="icon.png"
       inkscape:export-xdpi="28.138176"
       inkscape:export-ydpi="28.138176"
       transform="matrix(0.2930648,0,0,0.29320467,-9.2647846,-30.568702)"
       style="stroke:none"><rect
         style="fill:url(#linearGradient422);fill-opacity:1;stroke:none;stroke-width:0.132292"
         id="rect234"
         width="115.41181"
         height="115.41181"
         x="31.687695"
         y="104.31763"
         rx="10" /><g
         id="g337"
         transform="matrix(0.0083719,0,0,-0.00836791,39.852883,210.46002)"
         style="fill:#ffffff"><path
           d="m 7825.91,1827.5 c 0,-159.4 -128.42,-289.1 -286.26,-289.1 h -3244.3 c -157.84,0 -286.26,129.7 -286.26,289.1 v 7410.92 c 0,159.44 128.42,289.15 286.26,289.15 h 837.58 v 471.22 c 0,23.21 19.42,42.81 42.41,42.81 h 1463.12 c 22.98,0 42.4,-19.6 42.4,-42.81 v -471.22 h 858.79 c 157.84,0 286.26,-129.71 286.26,-289.15 z m -286.26,8128.45 h -434.7 v 42.84 c 0,259.81 -209.27,471.21 -466.49,471.21 H 5175.34 c -257.23,0 -466.5,-211.4 -466.5,-471.21 v -42.84 H 4295.35 C 3903.66,9955.95 3585,9634.07 3585,9238.42 V 1827.5 c 0,-395.6 318.66,-717.5 710.35,-717.5 h 3244.3 c 391.69,0 710.35,321.9 710.35,717.5 v 7410.92 c 0,395.65 -318.66,717.53 -710.35,717.53"
           style="fill:#ffffff;fill-opacity:1;fill-rule:nonzero;stroke:none"
           id="path339" /></g><g
         id="g509"
         transform="matrix(0.00760918,0,0,-0.00760555,51.347697,192.43202)"><path
           d="m 6165.67,4344.82 c 76.96,537.66 -20.2,1089.4 -205.96,1599.78 -29.04,79.76 -60.24,158.79 -96.08,235.72 C 5723.84,5854.64 5392.34,5654.61 5062.51,5524.9 4732.69,5395.19 4413.82,5333.09 4118.38,5137.32 3827.89,4944.84 3576.4,4630 3448.57,4305.81 c -127.82,-324.2 -259.29,-989.66 38.93,-1667.19 633.54,1794.09 2266.87,2820.75 2266.87,2820.75 0,0 -1326.66,-1120 -2093.33,-2880 -97.42,-223.64 -206.25,-490.79 -255.57,-729.69 237.86,299.75 597.32,474.32 952.79,615.99 355.47,141.68 726.16,263.83 1032.29,493.42 434.52,325.88 698.16,848.08 775.12,1385.73"
           style="fill:#7fcc31;fill-opacity:1;fill-rule:nonzero;stroke:none"
           id="path511" /><path
           d="m 6624.88,5433.02 c -15.37,83.48 -33,166.6 -55.56,248.43 -74.43,-115.5 -174.2,-207.5 -288.6,-281.22 84.58,-404.8 105.58,-822.54 26.76,-1227.15 -103.87,-533.11 -393.39,-1041.42 -843.73,-1345.06 -317.27,-213.93 -693.63,-317.32 -1055.76,-440.97 -362.14,-123.64 -729.91,-279.94 -982.53,-567.37 284.39,256.04 667.87,368.42 1041.94,449.04 374.07,80.61 759.91,139.45 1099.95,314.95 482.65,249.11 829.43,720.22 994.69,1237.6 165.26,517.38 161.18,1077.6 62.84,1611.75"
           style="fill:#68af30;fill-opacity:1;fill-rule:nonzero;stroke:none"
           id="path513" /></g></g></g></svg>
